<svg width="24" height="25" viewBox="0 0 24 25" fill="none" xmlns="http://www.w3.org/2000/svg">
<path opacity="0.4" d="M11 17.5996H4" stroke="#03182C" stroke-width="1.5" stroke-linecap="round" stroke-linejoin="round"/>
<path fill-rule="evenodd" clip-rule="evenodd" d="M20 17.5996C20 18.9803 18.8807 20.0996 17.5 20.0996C16.1193 20.0996 15 18.9803 15 17.5996C15 16.2179 16.1193 15.0996 17.5 15.0996C18.8807 15.0996 20 16.2179 20 17.5996Z" stroke="#03182C" stroke-width="1.5" stroke-linecap="round" stroke-linejoin="round"/>
<path opacity="0.4" d="M13 6.59961H20" stroke="#03182C" stroke-width="1.5" stroke-linecap="round" stroke-linejoin="round"/>
<path fill-rule="evenodd" clip-rule="evenodd" d="M4 6.59961C4 7.98135 5.11928 9.09961 6.5 9.09961C7.88072 9.09961 9 7.98135 9 6.59961C9 5.21889 7.88072 4.09961 6.5 4.09961C5.11928 4.09961 4 5.21889 4 6.59961Z" stroke="#03182C" stroke-width="1.5" stroke-linecap="round" stroke-linejoin="round"/>
</svg>
